<?xml version="1.0" encoding="UTF-8" standalone="no"?>
<!-- Created with Inkscape (http://www.inkscape.org/) -->

<svg
   width="100"
   height="50"
   viewBox="0 0 26.458333 13.229167"
   version="1.1"
   id="svg1"
   inkscape:version="1.3.2 (091e20ef0f, 2023-11-25, custom)"
   sodipodi:docname="logo_front.svg"
   xmlns:inkscape="http://www.inkscape.org/namespaces/inkscape"
   xmlns:sodipodi="http://sodipodi.sourceforge.net/DTD/sodipodi-0.dtd"
   xmlns="http://www.w3.org/2000/svg"
   xmlns:svg="http://www.w3.org/2000/svg">
  <sodipodi:namedview
     id="namedview1"
     pagecolor="#ffffff"
     bordercolor="#999999"
     borderopacity="1"
     inkscape:showpageshadow="2"
     inkscape:pageopacity="0"
     inkscape:pagecheckerboard="0"
     inkscape:deskcolor="#d1d1d1"
     inkscape:document-units="mm"
     inkscape:zoom="2.1884955"
     inkscape:cx="50.034373"
     inkscape:cy="24.902953"
     inkscape:window-width="1600"
     inkscape:window-height="828"
     inkscape:window-x="0"
     inkscape:window-y="0"
     inkscape:window-maximized="1"
     inkscape:current-layer="layer1" />
  <defs
     id="defs1" />
  <g
     inkscape:label="Camada 1"
     inkscape:groupmode="layer"
     id="layer1">
    <g
       id="g11"
       transform="matrix(0.35164063,0,0,0.35164063,0.74340019,-58.358686)">
      <g
         id="g10"
         transform="matrix(0.20510932,0,0,0.20510932,10.990047,155.06472)">
        <path
           style="font-size:131.739px;line-height:1.5;font-family:'Lifestyle M54';-inkscape-font-specification:'Lifestyle M54';text-align:center;letter-spacing:8.23371px;word-spacing:-0.0823371px;text-anchor:middle;white-space:pre;fill:#ffffff;stroke-width:6.22391"
           d="M 13.82586,194.32008 V 173.6028 h 6.79471 V 103.13849 H 13.82586 V 82.485157 h 27.56708 q 26.5317,1.15096 40.83293,17.26439 14.17181,16.049503 14.17181,38.237453 v 0.38365 q -0.19413,22.50765 -13.007,39.26051 -12.74816,16.68892 -41.99774,16.68892 z"
           id="path6" />
        <path
           id="path5"
           style="font-size:131.739px;line-height:1.5;font-family:'Lifestyle M54';-inkscape-font-specification:'Lifestyle M54';text-align:center;letter-spacing:8.23371px;word-spacing:-0.0823371px;text-anchor:middle;white-space:pre;fill:#ffffff;stroke-width:6.22391"
           d="m 102.51405,82.485157 -1.92701,25.841313 c 5.24746,8.75094 7.87497,18.63637 7.87497,29.66021 v 0.38396 c -0.12942,15.00508 -4.46505,28.09157 -13.00696,39.26014 -1.88054,2.46186 -4.04659,4.63545 -6.46575,6.55257 v 10.13633 h 26.20822 l 4.98316,-67.58657 18.83089,46.86949 h 20.96616 l 18.76681,-46.86949 5.04724,67.58657 H 210 V 173.6026 h -6.72982 L 196.47524,82.485157 H 173.95569 L 149.49465,143.48557 125.03361,82.485157 Z" />
        <path
           style="font-size:131.739px;line-height:1.5;font-family:'Lifestyle M54';-inkscape-font-specification:'Lifestyle M54';text-align:center;letter-spacing:8.23371px;word-spacing:-0.0823371px;text-anchor:middle;white-space:pre;fill:#000000;stroke-width:6.22391"
           d="m 41.39294,173.6028 q 1.1001,0.0639 2.13548,0.0639 15.14248,0 23.36084,-9.46345 8.60662,-9.97499 8.60662,-25.38506 v -0.44759 q -0.19413,-17.58411 -9.12431,-26.59996 -8.54192,-8.6322 -23.6844,-8.6322 h -1.29423 z"
           id="path9" />
      </g>
      <path
         style="font-size:4.23333px;line-height:1.5;font-family:'Noto Fangsong KSS Rotated';-inkscape-font-specification:'Noto Fangsong KSS Rotated';text-align:center;letter-spacing:0.264583px;word-spacing:-0.00264583px;text-anchor:middle;white-space:pre;fill:#000000;stroke-width:1.84178"
         d="m 55.496358,198.88518 q 2.027177,-0.0736 3.157724,-0.93561 1.169527,-0.81868 1.169527,-2.72895 v -5.65268 q 0,-4.01537 4.24928,-4.75604 v -0.23388 q -4.24928,-0.74042 -4.24928,-4.75613 v -5.69174 q 0,-1.91018 -1.130545,-2.72886 -1.130539,-0.85734 -3.196706,-0.89693 v -2.80687 q 3.586554,0.0368 5.652712,1.55943 2.066161,1.52038 2.066161,4.63907 v 5.69173 q 0,1.9882 1.208517,2.84582 1.247489,0.81867 3.547564,0.81867 v 2.84591 q -2.300075,0.0368 -3.547564,0.85733 -1.208517,0.81868 -1.208517,2.76783 v 5.80867 q 0,3.07973 -2.144131,4.60012 -2.144131,1.55943 -5.574742,1.55943 z"
         id="text11"
         aria-label="}" />
      <path
         style="font-size:4.23333px;line-height:1.5;font-family:'Noto Fangsong KSS Rotated';-inkscape-font-specification:'Noto Fangsong KSS Rotated';text-align:center;letter-spacing:0.264583px;word-spacing:-0.00264583px;text-anchor:middle;white-space:pre;fill:#000000;stroke-width:1.84178"
         d="m 12.767526,198.88518 q -2.027177,-0.0736 -3.1577237,-0.93561 -1.1695267,-0.81868 -1.1695267,-2.72895 v -5.65268 q 0,-4.01537 -4.24928,-4.75604 v -0.23388 q 4.24928,-0.74042 4.24928,-4.75613 v -5.69174 q 0,-1.91018 1.1305447,-2.72886 1.1305387,-0.85734 3.1967057,-0.89693 v -2.80687 q -3.5865534,0.0368 -5.6527114,1.55943 -2.066161,1.52038 -2.066161,4.63907 v 5.69173 q 0,1.9882 -1.2085173,2.84582 -1.247489,0.81867 -3.54756394,0.81867 v 2.84591 q 2.30007494,0.0368 3.54756394,0.85733 1.2085173,0.81868 1.2085173,2.76783 v 5.80867 q 0,3.07973 2.144131,4.60012 2.144131,1.55943 5.5747414,1.55943 z"
         id="path11"
         aria-label="}" />
    </g>
  </g>
</svg>
