<?xml version="1.0" encoding="UTF-8" standalone="no"?>
<!-- Created with Inkscape (http://www.inkscape.org/) -->

<svg
   width="100"
   height="50"
   viewBox="0 0 26.458333 13.229167"
   version="1.1"
   id="svg1"
   inkscape:version="1.3.2 (091e20e, 2023-11-25)"
   sodipodi:docname="logo_front.svg"
   xmlns:inkscape="http://www.inkscape.org/namespaces/inkscape"
   xmlns:sodipodi="http://sodipodi.sourceforge.net/DTD/sodipodi-0.dtd"
   xmlns="http://www.w3.org/2000/svg"
   xmlns:svg="http://www.w3.org/2000/svg">
  <sodipodi:namedview
     id="namedview1"
     pagecolor="#ffffff"
     bordercolor="#999999"
     borderopacity="1"
     inkscape:showpageshadow="2"
     inkscape:pageopacity="0"
     inkscape:pagecheckerboard="0"
     inkscape:deskcolor="#d1d1d1"
     inkscape:document-units="mm"
     inkscape:zoom="4.2606137"
     inkscape:cx="46.120117"
     inkscape:cy="29.573205"
     inkscape:window-width="1366"
     inkscape:window-height="701"
     inkscape:window-x="1600"
     inkscape:window-y="0"
     inkscape:window-maximized="1"
     inkscape:current-layer="layer1" />
  <defs
     id="defs1" />
  <g
     inkscape:label="Camada 1"
     inkscape:groupmode="layer"
     id="layer1">
    <path
       id="path6"
       style="font-size:131.739px;line-height:1.5;font-family:'Lifestyle M54';-inkscape-font-specification:'Lifestyle M54';text-align:center;letter-spacing:8.23371px;word-spacing:-0.0823371px;text-anchor:middle;white-space:pre;fill:#ff6600;stroke-width:0.448898"
       d="M 5.6053426 2.1177002 L 5.6053426 3.607015 L 6.0952352 3.607015 L 6.0952352 8.6893921 L 5.6053426 8.6893921 L 5.6053426 10.183875 L 7.593335 10.183875 C 8.9997464 10.183875 10.009636 9.782269 10.622607 8.9798136 C 11.238691 8.1742836 11.551201 7.2307002 11.560535 6.1484619 L 11.560535 6.1205566 C 11.560535 5.0536905 11.2198 4.1342958 10.538375 3.3625854 C 9.850727 2.5878015 8.8690622 2.1730421 7.593335 2.1177002 L 5.6053426 2.1177002 z M 7.593335 3.607015 L 7.6868693 3.607015 C 8.4149672 3.607015 8.9840531 3.8146528 9.3947754 4.229716 C 9.8241667 4.6632263 10.043799 5.3029628 10.053133 6.1484619 L 10.053133 6.1805013 C 10.053133 6.9214658 9.8463323 7.5317678 9.4324992 8.0113973 C 9.0373347 8.4664296 8.4754286 8.694043 7.7473307 8.694043 C 7.6975461 8.694043 7.6462309 8.6924654 7.593335 8.6893921 L 7.593335 3.607015 z " />
    <path
       id="path5"
       style="font-size:131.739px;line-height:1.5;font-family:'Lifestyle M54';-inkscape-font-specification:'Lifestyle M54';text-align:center;letter-spacing:8.23371px;word-spacing:-0.0823371px;text-anchor:middle;white-space:pre;fill:#ff6600;stroke-width:0.448898"
       d="m 12.001749,2.1175928 -0.138985,1.8637987 c 0.378472,0.6311596 0.567981,1.3441439 0.567981,2.1392359 v 0.027693 c -0.0093,1.0822379 -0.322041,2.026098 -0.938124,2.8316286 -0.135634,0.177561 -0.29186,0.3343307 -0.466341,0.4726026 v 0.7310804 h 1.890262 l 0.359409,-4.8746658 1.358174,3.3804512 h 1.512179 l 1.353552,-3.3804512 0.364031,4.8746658 h 1.890262 V 8.6894174 H 19.268762 L 18.778679,2.1175928 H 17.154461 L 15.390214,6.5172335 13.625968,2.1175928 Z" />
    <path
       style="font-size:4.23333px;line-height:1.5;font-family:'Noto Fangsong KSS Rotated';-inkscape-font-specification:'Noto Fangsong KSS Rotated';text-align:center;letter-spacing:0.264583px;word-spacing:-0.00264583px;text-anchor:middle;white-space:pre;fill:#ff6600;stroke-width:0.647645"
       d="m 20.258174,11.577424 q 0.712838,-0.02588 1.110385,-0.328998 0.411253,-0.287882 0.411253,-0.95961 V 8.3011038 q 0,-1.4119672 1.494219,-1.6724169 V 6.5464452 Q 21.779812,6.2860835 21.779812,4.8739967 V 2.8725496 q 0,-0.6716969 -0.397546,-0.959578 Q 20.984723,1.611496 20.258174,1.5975746 V 0.61056503 q 1.261179,0.0129404 1.987724,0.54835897 0.726546,0.5346274 0.726546,1.6312855 V 4.791653 q 0,0.6991319 0.424964,1.0007059 0.438667,0.2878777 1.247467,0.2878777 v 1.0007376 q -0.8088,0.01294 -1.247467,0.301472 -0.424964,0.2878812 -0.424964,0.9732815 v 2.0425643 q 0,1.082958 -0.753964,1.617589 -0.753963,0.548359 -1.960306,0.548359 z"
       id="text11"
       aria-label="}" />
    <path
       style="font-size:4.23333px;line-height:1.5;font-family:'Noto Fangsong KSS Rotated';-inkscape-font-specification:'Noto Fangsong KSS Rotated';text-align:center;letter-spacing:0.264583px;word-spacing:-0.00264583px;text-anchor:middle;white-space:pre;fill:#ff6600;stroke-width:0.647645"
       d="M 5.2329811,11.577424 Q 4.5201433,11.551543 4.1225971,11.248426 3.711344,10.960544 3.711344,10.288816 V 8.3011038 q 0,-1.4119672 -1.4942195,-1.6724169 V 6.5464452 Q 3.711344,6.2860835 3.711344,4.8739967 V 2.8725496 q 0,-0.6716969 0.3975455,-0.959578 Q 4.5064328,1.611496 5.2329811,1.5975746 V 0.61056503 Q 3.9718032,0.62350541 3.2452581,1.158924 2.5187119,1.6935514 2.5187119,2.7902095 V 4.791653 q 0,0.6991319 -0.4249638,1.0007059 -0.4386678,0.2878777 -1.24746758,0.2878777 v 1.0007376 q 0.80879978,0.01294 1.24746758,0.301472 0.4249638,0.2878812 0.4249638,0.9732815 v 2.0425643 q 0,1.082958 0.7539636,1.617589 0.7539636,0.548359 1.9603056,0.548359 z"
       id="path11"
       aria-label="}" />
  </g>
</svg>
