<?xml version="1.0" encoding="UTF-8" standalone="no"?>
<!-- Created with Inkscape (http://www.inkscape.org/) -->

<svg
   width="123.03214mm"
   height="98.443588mm"
   viewBox="0 0 123.03214 98.443588"
   version="1.1"
   id="svg8"
   inkscape:version="1.3.2 (091e20e, 2023-11-25)"
   sodipodi:docname="prot.svg"
   xmlns:inkscape="http://www.inkscape.org/namespaces/inkscape"
   xmlns:sodipodi="http://sodipodi.sourceforge.net/DTD/sodipodi-0.dtd"
   xmlns="http://www.w3.org/2000/svg"
   xmlns:svg="http://www.w3.org/2000/svg"
   xmlns:rdf="http://www.w3.org/1999/02/22-rdf-syntax-ns#"
   xmlns:cc="http://creativecommons.org/ns#"
   xmlns:dc="http://purl.org/dc/elements/1.1/">
  <defs
     id="defs2" />
  <sodipodi:namedview
     id="base"
     pagecolor="#ffffff"
     bordercolor="#666666"
     borderopacity="1.0"
     inkscape:pageopacity="0.0"
     inkscape:pageshadow="2"
     inkscape:zoom="0.98746049"
     inkscape:cx="260.26358"
     inkscape:cy="182.28577"
     inkscape:document-units="mm"
     inkscape:current-layer="layer1"
     showgrid="false"
     inkscape:snap-global="false"
     inkscape:window-width="1366"
     inkscape:window-height="701"
     inkscape:window-x="1600"
     inkscape:window-y="0"
     inkscape:window-maximized="1"
     borderlayer="false"
     showborder="true"
     fit-margin-top="0"
     fit-margin-left="0"
     fit-margin-right="0"
     fit-margin-bottom="0"
     inkscape:showpageshadow="2"
     inkscape:pagecheckerboard="0"
     inkscape:deskcolor="#d1d1d1" />
  <metadata
     id="metadata5">
    <rdf:RDF>
      <cc:Work
         rdf:about="">
        <dc:format>image/svg+xml</dc:format>
        <dc:type
           rdf:resource="http://purl.org/dc/dcmitype/StillImage" />
        <dc:title />
      </cc:Work>
    </rdf:RDF>
  </metadata>
  <g
     inkscape:label="Camada 1"
     inkscape:groupmode="layer"
     id="layer1"
     transform="translate(-34.02879,-94.594436)">
    <rect
       style="fill:#000000;fill-opacity:1;stroke:#ffffff;stroke-width:0.264583"
       id="rect815"
       width="43.982681"
       height="76.576996"
       x="144.20261"
       y="32.554787"
       ry="4.7124305"
       transform="rotate(33.235448)" />
    <rect
       transform="rotate(33.235448)"
       ry="4.7124305"
       y="30.617395"
       x="141.47581"
       height="76.576996"
       width="43.982681"
       id="rect817"
       style="fill:#ff6600;fill-opacity:1;stroke:#ffffff;stroke-width:0.264583" />
    <g
       id="g872"
       transform="translate(20.095741,-4.0191482)"
       style="fill:#ff6600;stroke:#aa4400">
      <rect
         style="fill:#ff6600;fill-opacity:1;stroke:#aa4400;stroke-width:0.264583"
         id="rect823"
         width="19.15329"
         height="6.895184"
         x="39.26424"
         y="109.87237"
         ry="3.447592" />
      <circle
         style="fill:#000000;fill-opacity:1;stroke:#ffff00;stroke-width:0.264583"
         id="path825"
         cx="54.778408"
         cy="113.31993"
         r="2.2983947" />
    </g>
    <rect
       transform="matrix(0.81513734,0.57926774,-0.55618775,0.83105667,0,0)"
       ry="2.5807464"
       y="35.748699"
       x="143.63219"
       height="41.93713"
       width="40.934563"
       id="rect831"
       style="fill:#b3b3b3;fill-opacity:1;stroke:#d7eef4;stroke-width:0.750752;stroke-miterlimit:4;stroke-dasharray:none" />
    <g
       transform="rotate(32.923577,149.65087,92.91882)"
       id="g860">
      <rect
         style="fill:#ff6600;fill-opacity:1;stroke:#ff6600;stroke-width:0.802;stroke-miterlimit:4;stroke-dasharray:none"
         id="rect837"
         width="4.9798555"
         height="32.752125"
         x="121.81493"
         y="145.11441"
         ry="0" />
      <rect
         ry="0"
         y="165.50505"
         x="128.28162"
         height="12.361485"
         width="5.2747679"
         id="rect839"
         style="fill:#ff5555;fill-opacity:1;stroke:#ff5555;stroke-width:0.507088;stroke-miterlimit:4;stroke-dasharray:none" />
      <rect
         style="fill:#37abc8;fill-opacity:1;stroke:#0066ff;stroke-width:0.632581;stroke-miterlimit:4;stroke-dasharray:none"
         id="rect841"
         width="5.1492748"
         height="19.705774"
         x="135.43109"
         y="157.71494"
         ry="0" />
    </g>
    <g
       transform="matrix(0.42062749,0,0,0.42062749,97.571249,62.323125)"
       id="g849">
      <rect
         ry="3.447592"
         y="107.01526"
         x="141.87764"
         height="6.895184"
         width="19.15329"
         id="rect827"
         style="fill:#dbe3de;fill-opacity:1;stroke:#ff6600;stroke-width:0.264583"
         transform="rotate(35.12024)" />
      <circle
         r="2.2983947"
         cy="176.68996"
         cx="77.431213"
         id="circle845"
         style="fill:#ff6600;fill-opacity:1;stroke:#d45500;stroke-width:0.264583"
         transform="rotate(3.8349408)" />
    </g>
    <g
       id="g855"
       transform="matrix(0.42062749,0,0,0.42062749,93.932124,67.686046)">
      <rect
         transform="rotate(35.12024)"
         style="fill:#dbe3de;fill-opacity:1;stroke:#ff6600;stroke-width:0.264583"
         id="rect851"
         width="19.15329"
         height="6.895184"
         x="141.87764"
         y="107.01526"
         ry="3.447592" />
      <circle
         transform="rotate(3.8349408)"
         style="fill:#ff6600;fill-opacity:1;stroke:#d45500;stroke-width:0.264583"
         id="circle853"
         cx="77.431213"
         cy="176.68996"
         r="2.2983947" />
    </g>
    <rect
       transform="rotate(34.928129)"
       style="fill:#dbe3de;fill-opacity:1;stroke:#000000;stroke-width:0.343585"
       id="rect862"
       width="32.673122"
       height="6.8161826"
       x="149.51987"
       y="82.638512"
       ry="3.4080913" />
    <rect
       ry="3.4080913"
       y="91.335838"
       x="149.13573"
       height="6.8161826"
       width="32.673122"
       id="rect864"
       style="fill:#dbe3de;fill-opacity:1;stroke:#000000;stroke-width:0.343585"
       transform="rotate(34.928129)" />
    <rect
       ry="0.83043903"
       y="29.200989"
       x="159.66907"
       height="1.6608781"
       width="7.9613581"
       id="rect866"
       style="fill:#dbe3de;fill-opacity:1;stroke:#0088aa;stroke-width:0.0837202"
       transform="rotate(34.928129)" />
    <rect
       style="opacity:0.554;fill:#ffff00;fill-opacity:1;stroke:#ffffff;stroke-width:0.750752;stroke-miterlimit:4;stroke-dasharray:none"
       id="rect868"
       width="40.934563"
       height="41.93713"
       x="132.28555"
       y="20.84115"
       ry="2.5807464"
       transform="matrix(0.81513734,0.57926774,-0.55618775,0.83105667,0,0)" />
    <rect
       y="117.72825"
       x="59.551517"
       height="6.895184"
       width="6.7036514"
       id="rect874"
       style="opacity:1;fill:#ff6600;fill-opacity:1;stroke:#aa4400;stroke-width:0.802;stroke-miterlimit:4;stroke-dasharray:none" />
    <text
       id="text878"
       y="123.48037"
       x="60.588909"
       style="font-style:normal;font-weight:normal;font-size:6.39644px;line-height:1.25;font-family:sans-serif;letter-spacing:0px;word-spacing:0px;fill:#000000;fill-opacity:1;stroke:none;stroke-width:0.159911"
       xml:space="preserve"><tspan
         style="font-weight:bold;fill:#000000;fill-opacity:1;stroke-width:0.159911"
         y="123.48037"
         x="60.588909"
         id="tspan876"
         sodipodi:role="line">X</tspan></text>
    <rect
       y="113.70605"
       x="136.16469"
       height="6.895184"
       width="6.7036514"
       id="rect887"
       style="opacity:1;fill:#ff6600;fill-opacity:1;stroke:#000000;stroke-width:0.802;stroke-miterlimit:4;stroke-dasharray:none" />
    <path
       style="fill:#000000;fill-opacity:1;stroke:none;stroke-width:0.459062;stroke-miterlimit:4;stroke-dasharray:none"
       d="m 138.29984,114.59297 -0.0935,0.0935 v 5.39469 l 0.0159,0.0159 2.79082,-2.79081 z"
       id="path889"
       inkscape:connector-curvature="0" />
    <g
       style="fill:#000000"
       transform="matrix(0.59873351,0,0,0.62619968,142.71868,124.18279)"
       id="g904">
      <path
         style="fill:#000000"
         inkscape:connector-curvature="0"
         d="m 12,2 a 10.032,10.032 0 0 1 7.122,3 H 16 a 1,1 0 0 0 -1,1 v 0 a 1,1 0 0 0 1,1 h 4.143 A 1.858,1.858 0 0 0 22,5.143 V 1 A 1,1 0 0 0 21,0 V 0 A 1,1 0 0 0 20,1 V 3.078 A 11.981,11.981 0 0 0 0.05,10.9 a 1.007,1.007 0 0 0 1,1.1 v 0 A 0.982,0.982 0 0 0 2.039,11.122 10.014,10.014 0 0 1 12,2 Z"
         id="path891" />
      <path
         style="fill:#000000"
         inkscape:connector-curvature="0"
         d="M 22.951,12 A 0.982,0.982 0 0 0 21.962,12.878 9.986,9.986 0 0 1 4.878,19 H 8 a 1,1 0 0 0 1,-1 v 0 A 1,1 0 0 0 8,17 H 3.857 A 1.856,1.856 0 0 0 2,18.857 V 23 a 1,1 0 0 0 1,1 v 0 A 1,1 0 0 0 4,23 V 20.922 A 11.981,11.981 0 0 0 23.95,13.1 1.007,1.007 0 0 0 22.95,12 Z"
         id="path893" />
    </g>
    <g
       style="fill:#000000"
       transform="matrix(0.59873351,0,0,0.62619968,119.26743,162.32584)"
       id="g922">
      <path
         style="fill:#000000"
         inkscape:connector-curvature="0"
         d="m 1,4.75 h 2.736 a 3.728,3.728 0 0 0 7.195,0 H 23 a 1,1 0 0 0 0,-2 H 10.931 a 3.728,3.728 0 0 0 -7.195,0 H 1 a 1,1 0 0 0 0,2 z M 7.333,2 A 1.75,1.75 0 1 1 5.583,3.75 1.752,1.752 0 0 1 7.333,2 Z"
         id="path906" />
      <path
         style="fill:#000000"
         inkscape:connector-curvature="0"
         d="M 23,11 H 20.264 A 3.727,3.727 0 0 0 13.07,11 H 1 a 1,1 0 0 0 0,2 h 12.07 a 3.727,3.727 0 0 0 7.194,0 H 23 a 1,1 0 0 0 0,-2 z m -6.333,2.75 a 1.75,1.75 0 1 1 1.75,-1.75 1.752,1.752 0 0 1 -1.75,1.75 z"
         id="path908" />
      <path
         style="fill:#000000"
         inkscape:connector-curvature="0"
         d="M 23,19.25 H 10.931 a 3.728,3.728 0 0 0 -7.195,0 H 1 a 1,1 0 0 0 0,2 h 2.736 a 3.728,3.728 0 0 0 7.195,0 H 23 a 1,1 0 0 0 0,-2 z M 7.333,22 A 1.75,1.75 0 1 1 9.083,20.25 1.753,1.753 0 0 1 7.333,22 Z"
         id="path910" />
    </g>
    <g
       style="fill:#000000"
       transform="matrix(0.59873351,0,0,0.62619968,53.482989,159.00942)"
       id="g937">
      <path
         style="fill:#000000"
         inkscape:connector-curvature="0"
         d="M 12,0 A 10.011,10.011 0 0 0 2,10 c 0,5.282 8.4,12.533 9.354,13.343 L 12,23.889 12.646,23.343 C 13.6,22.533 22,15.282 22,10 A 10.011,10.011 0 0 0 12,0 Z m 0,15 a 5,5 0 1 1 5,-5 5.006,5.006 0 0 1 -5,5 z"
         id="path924" />
      <circle
         style="fill:#000000"
         cx="12"
         cy="10"
         r="3"
         id="circle926" />
    </g>
    <path
       style="fill:#000000;stroke-width:0.612313"
       inkscape:connector-curvature="0"
       d="m 144.40053,163.68237 a 7.1848024,7.514396 0 1 0 7.1848,7.5144 7.1925857,7.5225366 0 0 0 -7.1848,-7.5144 z m 5.17725,4.3834 h -1.92852 a 11.780681,12.321105 0 0 0 -1.68903,-2.90807 6.0058959,6.2814087 0 0 1 3.61755,2.90807 z m -2.48295,3.131 a 6.1136681,6.3941247 0 0 1 -0.28499,1.87859 h -4.81861 a 6.1136681,6.3941247 0 0 1 -0.285,-1.87859 6.1136681,6.3941247 0 0 1 0.285,-1.8786 h 4.81861 a 6.1136681,6.3941247 0 0 1 0.28499,1.8786 z m -4.62342,3.131 h 3.85824 a 11.743559,12.28228 0 0 1 -1.92912,2.873 11.717216,12.254728 0 0 1 -1.92912,-2.873 z m 0,-6.262 a 11.743559,12.28228 0 0 1 1.92912,-2.873 11.717216,12.254728 0 0 1 1.92912,2.873 z m 0.37242,-2.90807 a 11.780681,12.321105 0 0 0 -1.69203,2.90807 h -1.92852 a 6.0058959,6.2814087 0 0 1 3.62055,-2.90807 z m -4.15462,4.16047 h 2.05905 a 7.1943821,7.5244151 0 0 0 -0.2395,1.8786 7.1943821,7.5244151 0 0 0 0.2395,1.87859 h -2.05905 a 5.9825453,6.2569872 0 0 1 0,-3.75719 z m 0.53407,5.0096 h 1.92853 a 11.780681,12.321105 0 0 0 1.69203,2.90807 6.0058959,6.2814087 0 0 1 -3.62056,-2.90807 z m 6.73696,2.90807 a 11.780681,12.321105 0 0 0 1.68902,-2.90807 h 1.92852 a 6.0058959,6.2814087 0 0 1 -3.61754,2.90807 z m 4.15161,-4.16048 h -2.05904 a 7.1943821,7.5244151 0 0 0 0.23949,-1.87859 7.1943821,7.5244151 0 0 0 -0.23949,-1.8786 h 2.05784 a 5.9825453,6.2569872 0 0 1 0,3.75719 z"
       id="path939" />
    <g
       style="fill:#000000"
       transform="matrix(0.56647399,-0.19387893,0.20277289,0.59246029,55.764995,134.72443)"
       id="g965">
      <path
         style="fill:#000000"
         inkscape:connector-curvature="0"
         d="M 22.713,4.077 A 2.993,2.993 0 0 0 20.41,3 H 4.242 L 4.2,2.649 A 3,3 0 0 0 1.222,0 H 1 a 1,1 0 0 0 0,2 h 0.222 a 1,1 0 0 1 0.993,0.883 l 1.376,11.7 A 5,5 0 0 0 8.557,19 H 19 a 1,1 0 0 0 0,-2 H 8.557 a 3,3 0 0 1 -2.82,-2 h 11.92 a 5,5 0 0 0 4.921,-4.113 l 0.785,-4.354 a 2.994,2.994 0 0 0 -0.65,-2.456 z"
         id="path949" />
      <circle
         style="fill:#000000"
         cx="7"
         cy="22"
         r="2"
         id="circle951" />
      <circle
         style="fill:#000000"
         cx="17"
         cy="22"
         r="2"
         id="circle953" />
    </g>
    <g
       style="fill:#000000"
       transform="matrix(0.59873351,0,0,0.62619968,129.0939,144.11294)"
       id="_01_align_center"
       data-name="01 align center">
      <path
         style="fill:#000000"
         inkscape:connector-curvature="0"
         d="M 15,24 H 9 V 20.487 A 9,9 0 0 1 6.151,18.841 l -3.044,1.759 -3,-5.2 3.043,-1.755 a 9.1,9.1 0 0 1 0,-3.29 L 0.107,8.6 l 3,-5.2 3.044,1.759 A 9,9 0 0 1 9,3.513 V 0 h 6 v 3.513 a 9,9 0 0 1 2.849,1.646 l 3.044,-1.759 3,5.2 -3.043,1.755 a 9.1,9.1 0 0 1 0,3.29 l 3.043,1.755 -3,5.2 -3.044,-1.758 A 9,9 0 0 1 15,20.487 Z m -4,-2 h 2 v -3.027 l 0.751,-0.194 A 6.984,6.984 0 0 0 16.994,16.9 l 0.543,-0.553 2.623,1.515 1,-1.732 -2.62,-1.513 0.206,-0.746 a 7.048,7.048 0 0 0 0,-3.75 L 18.54,9.375 21.16,7.862 20.16,6.13 17.537,7.649 16.994,7.1 A 6.984,6.984 0 0 0 13.751,5.225 L 13,5.027 V 2 H 11 V 5.027 L 10.249,5.221 A 6.984,6.984 0 0 0 7.006,7.1 L 6.463,7.653 3.84,6.134 l -1,1.732 2.62,1.513 -0.206,0.746 a 7.048,7.048 0 0 0 0,3.75 l 0.206,0.746 -2.62,1.513 1,1.732 2.623,-1.515 0.543,0.553 a 6.984,6.984 0 0 0 3.243,1.875 L 11,18.973 Z m 1,-6 a 4,4 0 1 1 4,-4 4,4 0 0 1 -4,4 z m 0,-6 a 2,2 0 1 0 2,2 2,2 0 0 0 -2,-2 z"
         id="path967" />
    </g>
    <rect
       transform="scale(1,-1)"
       style="opacity:1;fill:#000000;fill-opacity:1;stroke:none;stroke-width:0.21380173;stroke-miterlimit:4;stroke-dasharray:none"
       id="rect1039"
       width="65.378143"
       height="0.80382943"
       x="53.320698"
       y="-153.65038" />
    <rect
       y="-157.13364"
       x="82.258568"
       height="0.80382943"
       width="43.674744"
       id="rect1043"
       style="opacity:1;fill:#000000;fill-opacity:1;stroke:none;stroke-width:0.17474715;stroke-miterlimit:4;stroke-dasharray:none"
       transform="scale(1,-1)" />
    <rect
       y="-103.27705"
       x="83.866226"
       height="0.80382943"
       width="65.378143"
       id="rect1047"
       style="opacity:1;fill:#000000;fill-opacity:1;stroke:none;stroke-width:0.21380173;stroke-miterlimit:4;stroke-dasharray:none"
       transform="scale(1,-1)" />
    <rect
       transform="scale(1,-1)"
       style="opacity:1;fill:#000000;fill-opacity:1;stroke:none;stroke-width:0.17474715;stroke-miterlimit:4;stroke-dasharray:none"
       id="rect1049"
       width="43.674744"
       height="0.80382943"
       x="112.80409"
       y="-106.76031" />
    <rect
       transform="scale(1,-1)"
       style="opacity:1;fill:#000000;fill-opacity:1;stroke:none;stroke-width:0.21380173;stroke-miterlimit:4;stroke-dasharray:none"
       id="rect1055"
       width="65.378143"
       height="0.80382943"
       x="34.02879"
       y="-189.55476" />
    <rect
       y="-193.03802"
       x="62.966656"
       height="0.80382943"
       width="43.674744"
       id="rect1057"
       style="opacity:1;fill:#000000;fill-opacity:1;stroke:none;stroke-width:0.17474715;stroke-miterlimit:4;stroke-dasharray:none"
       transform="scale(1,-1)" />
  </g>
</svg>
