<?xml version="1.0" encoding="UTF-8" standalone="no"?>
<!-- Created with Inkscape (http://www.inkscape.org/) -->

<svg
   width="100"
   height="100"
   viewBox="0 0 26.458333 26.458333"
   version="1.1"
   id="svg1"
   xml:space="preserve"
   inkscape:version="1.3.2 (091e20ef0f, 2023-11-25, custom)"
   sodipodi:docname="tub_ilustra.svg"
   xmlns:inkscape="http://www.inkscape.org/namespaces/inkscape"
   xmlns:sodipodi="http://sodipodi.sourceforge.net/DTD/sodipodi-0.dtd"
   xmlns="http://www.w3.org/2000/svg"
   xmlns:svg="http://www.w3.org/2000/svg"><sodipodi:namedview
     id="namedview1"
     pagecolor="#ffffff"
     bordercolor="#999999"
     borderopacity="1"
     inkscape:showpageshadow="2"
     inkscape:pageopacity="0"
     inkscape:pagecheckerboard="0"
     inkscape:deskcolor="#d1d1d1"
     inkscape:document-units="mm"
     inkscape:zoom="2.112135"
     inkscape:cx="54.447278"
     inkscape:cy="90.193099"
     inkscape:window-width="1600"
     inkscape:window-height="830"
     inkscape:window-x="0"
     inkscape:window-y="0"
     inkscape:window-maximized="1"
     inkscape:current-layer="layer1" /><defs
     id="defs1" /><g
     inkscape:label="Camada 1"
     inkscape:groupmode="layer"
     id="layer1"><path
       style="fill:#808080;stroke-width:0.236413"
       d="M 14.47203,16.324584 11.803158,16.190563 11.4791,16.01419 c -0.371672,-0.202291 -0.649005,-0.562417 -0.746729,-0.969661 -0.105602,-0.440088 0.379532,-9.5617477 0.527826,-9.9242694 0.758726,-1.5746309 3.545278,-0.8057261 4.908051,-0.7300505 3.226767,0.176262 3.370028,0.2144212 3.733214,0.994357 0.08076,0.1734227 0.149985,0.2730893 0.153841,0.2214853 0.120909,1.3337079 -0.159716,3.7582149 -0.247879,5.4727806 -0.248413,4.915701 -0.246339,4.905705 -1.097698,5.292369 -0.140392,0.06376 -0.22711,0.119879 -0.192709,0.124702 C 17.551244,16.739306 15.46744,16.37578 14.47203,16.32458 Z M 19.453,11.989915 c 0.01999,-0.03237 0.106036,-1.418471 0.191168,-3.0802174 0.227305,-4.4368033 0.59421,-4.0420894 -3.974839,-4.2761186 -4.59189,-0.2352018 -4.180142,-0.5921938 -4.407381,3.8212731 -0.19339,3.7560559 -0.292169,3.5201989 0.974712,2.3272729 1.073936,-1.0112439 0.925127,-0.9885034 1.577264,-0.24101 0.650096,0.745149 0.722622,0.819605 0.798393,0.819605 0.03209,0 0.540973,-0.450365 1.130864,-1.000813 1.290775,-1.2044638 0.951974,-1.2542213 2.342481,0.344029 1.100048,1.264397 1.277521,1.431308 1.367338,1.285979 z M 13.287645,7.8414144 C 12.816506,7.5276079 12.747908,6.9790723 13.127946,6.5643815 13.631074,6.0153732 14.545411,6.3610647 14.544812,7.1000657 14.544339,7.8001274 13.844859,8.2125533 13.287645,7.8414144 Z M 7.3178478,15.688753 C 6.5816203,15.341213 6.620281,15.637262 6.4300402,8.8899642 L 6.4502368,5.1086849 C 6.7687077,4.5565654 7.0277469,4.6199215 9.1519385,4.5660667 l 1.7063955,-0.043261 -0.179612,0.3414479 c -0.207666,0.3947801 -0.167934,-0.089061 -0.449575,5.4745274 -0.2367985,4.677826 -0.2376435,4.74472 -0.06407,5.084944 0.179888,0.352609 -2.1936598,0.573545 -2.8472201,0.265028 z"
       id="path1"
       sodipodi:nodetypes="scssssscsssssssssssssssscssccscsssss" /><g
       id="text2"
       style="font-size:2.9233px;line-height:0.9;font-family:'Noto Fangsong KSS Rotated';-inkscape-font-specification:'Noto Fangsong KSS Rotated';text-align:center;letter-spacing:0.182706px;word-spacing:-0.00182706px;text-anchor:middle;white-space:pre;fill:#808080;stroke-width:0.138109"
       aria-label="Clique na &#10;Miniatura"><path
         style="font-weight:bold"
         d="m 6.174549,18.079534 q -0.2543271,0 -0.3887989,0.190014 -0.1344718,0.190015 -0.1344718,0.520348 0,0.333256 0.1227786,0.517424 0.1257019,0.181244 0.4004921,0.181244 0.1286252,0 0.2543271,-0.02923 0.1286252,-0.02923 0.2777135,-0.08185 v 0.371259 q -0.1373951,0.05554 -0.2718669,0.08185 -0.1344718,0.02631 -0.3010999,0.02631 -0.321563,0 -0.5320406,-0.131548 -0.2075543,-0.134472 -0.3069465,-0.374183 -0.099392,-0.242634 -0.099392,-0.564197 0,-0.315716 0.1140087,-0.55835 0.1140087,-0.242634 0.3303329,-0.380029 0.2192475,-0.137395 0.5349639,-0.137395 0.1549349,0 0.3098698,0.04093 0.1578582,0.038 0.3010999,0.105239 L 6.642277,18.216929 Q 6.525345,18.161386 6.4054897,18.12046 6.2885577,18.079534 6.174549,18.079534 Z m 1.5595778,1.748133 H 7.2985551 V 17.605959 H 7.7341268 Z M 8.592116,17.605959 q 0.096469,0 0.1666281,0.04677 0.070159,0.04385 0.070159,0.166628 0,0.119855 -0.070159,0.166628 -0.070159,0.04677 -0.1666281,0.04677 -0.099392,0 -0.1695514,-0.04677 -0.067236,-0.04677 -0.067236,-0.166628 0,-0.122778 0.067236,-0.166628 0.070159,-0.04677 0.1695514,-0.04677 z m 0.2163242,0.625586 v 1.596122 H 8.3728685 v -1.596122 z m 1.5975838,1.628279 q 0,-0.122779 0.01754,-0.239711 h -0.01754 q -0.06139,0.09939 -0.169551,0.169551 -0.108162,0.06724 -0.2835602,0.06724 -0.2689436,0 -0.4355717,-0.207554 Q 9.350713,19.438868 9.350713,19.03253 q 0,-0.409262 0.1695514,-0.61974 0.1695514,-0.210478 0.4414183,-0.210478 0.1753983,0 0.2835603,0.06724 0.111085,0.06724 0.178321,0.166628 h 0.01169 l 0.038,-0.204631 h 0.368336 v 2.297714 h -0.435572 z m -0.298176,-0.34495 q 0.181244,0 0.251404,-0.105239 0.07308,-0.108162 0.07601,-0.321563 v -0.05262 q 0,-0.233864 -0.07308,-0.356643 -0.07016,-0.122778 -0.260174,-0.122778 -0.1549348,0 -0.2309406,0.125702 -0.076006,0.122778 -0.076006,0.356642 0,0.476498 0.3127934,0.476498 z m 2.83706,-1.283329 v 1.596122 h -0.333256 l -0.05847,-0.204631 H 12.5298 q -0.07601,0.122779 -0.210478,0.178322 -0.131548,0.05554 -0.280637,0.05554 -0.25725,0 -0.412185,-0.137395 -0.154935,-0.140318 -0.154935,-0.447265 v -1.040695 h 0.435572 v 0.932533 q 0,0.169552 0.06139,0.257251 0.06139,0.0877 0.195861,0.0877 0.198785,0 0.271867,-0.134472 0.07308,-0.137395 0.07308,-0.391722 v -0.751289 z m 1.296483,-0.02923 q 0.330333,0 0.523271,0.190015 0.192937,0.187091 0.192937,0.534964 v 0.210477 h -1.029001 q 0.0058,0.184168 0.108162,0.289407 0.105239,0.105239 0.289407,0.105239 0.154935,0 0.280636,-0.02923 0.125702,-0.03216 0.260174,-0.09647 v 0.33618 q -0.116932,0.05847 -0.24848,0.08478 -0.128626,0.02923 -0.312793,0.02923 -0.239711,0 -0.423879,-0.0877 -0.184168,-0.09062 -0.289407,-0.271867 -0.105239,-0.181244 -0.105239,-0.456034 0,-0.280637 0.09355,-0.464805 0.09647,-0.187091 0.26602,-0.280637 0.169552,-0.09355 0.394646,-0.09355 z m 0.0029,0.30987 q -0.125702,0 -0.210477,0.08185 -0.08185,0.08185 -0.09647,0.254327 h 0.610969 q -0.0029,-0.146165 -0.07601,-0.239711 -0.07308,-0.09647 -0.228018,-0.09647 z m 3.09687,-0.30987 q 0.25725,0 0.412185,0.140319 0.154935,0.137395 0.154935,0.444341 v 1.040695 h -0.435571 v -0.932532 q 0,-0.172475 -0.06139,-0.257251 -0.06139,-0.0877 -0.195861,-0.0877 -0.198784,0 -0.271867,0.137395 -0.07308,0.134472 -0.07308,0.388799 v 0.751288 h -0.435572 v -1.596122 h 0.333256 l 0.05847,0.204631 h 0.02339 q 0.07601,-0.122778 0.207554,-0.178321 0.134472,-0.05554 0.28356,-0.05554 z m 1.851909,-0.0029 q 0.321563,0 0.491114,0.140319 0.172475,0.137395 0.172475,0.423878 v 1.064081 h -0.304023 l -0.08478,-0.216324 h -0.01169 q -0.102316,0.128625 -0.216324,0.187091 -0.114009,0.05847 -0.312794,0.05847 -0.2134,0 -0.353719,-0.122778 -0.140318,-0.125702 -0.140318,-0.382953 0,-0.254327 0.178321,-0.374182 0.178321,-0.122779 0.534964,-0.134472 l 0.277713,-0.0088 v -0.07016 q 0,-0.125702 -0.06724,-0.184168 -0.06431,-0.05847 -0.181245,-0.05847 -0.116932,0 -0.228017,0.03508 -0.111086,0.03216 -0.222171,0.08185 l -0.143242,-0.295253 q 0.128625,-0.06724 0.28356,-0.105239 0.157858,-0.038 0.32741,-0.038 z m 0.06139,0.89453 q -0.210478,0.0058 -0.29233,0.07601 -0.08185,0.07016 -0.08185,0.184168 0,0.09939 0.05847,0.143241 0.05847,0.04093 0.152011,0.04093 0.140319,0 0.236788,-0.08185 0.09647,-0.08478 0.09647,-0.236787 v -0.131549 z"
         id="path3" /><path
         style="font-weight:bold"
         d="M 6.3028052,22.736716 5.7999976,21.099668 h -0.011693 q 0.00292,0.05847 0.00877,0.175398 0.00585,0.116932 0.011693,0.251403 0.00585,0.131549 0.00585,0.239711 v 0.970536 H 5.4199686 v -2.087237 h 0.6021998 l 0.4940377,1.596122 h 0.00877 l 0.5232707,-1.596122 h 0.6021998 v 2.087237 H 7.2382612 V 21.74864 q 0,-0.09939 0.00292,-0.228017 0.00585,-0.128625 0.00877,-0.242634 0.00585,-0.116932 0.00877,-0.175398 h -0.011693 l -0.5378872,1.634125 z m 2.2407115,-2.221708 q 0.096469,0 0.1666281,0.04677 0.070159,0.04385 0.070159,0.166628 0,0.119856 -0.070159,0.166629 -0.070159,0.04677 -0.1666281,0.04677 -0.099392,0 -0.1695514,-0.04677 -0.067236,-0.04677 -0.067236,-0.166629 0,-0.122778 0.067236,-0.166628 0.070159,-0.04677 0.1695514,-0.04677 z m 0.2163242,0.625586 v 1.596122 H 8.3242692 v -1.596122 z m 1.5449651,-0.02923 q 0.25725,0 0.412185,0.140318 0.154935,0.137395 0.154935,0.444342 v 1.040695 h -0.435572 v -0.932533 q 0,-0.172475 -0.06139,-0.257251 -0.06139,-0.0877 -0.195861,-0.0877 -0.1987845,0 -0.271867,0.137396 -0.073082,0.134471 -0.073082,0.388798 v 0.751289 H 9.3985828 V 21.140594 H 9.731839 l 0.058466,0.204631 h 0.023386 q 0.076006,-0.122779 0.2075546,-0.178322 0.134471,-0.05554 0.28356,-0.05554 z m 1.416337,-0.596353 q 0.09647,0 0.166628,0.04677 0.07016,0.04385 0.07016,0.166628 0,0.119856 -0.07016,0.166629 -0.07016,0.04677 -0.166628,0.04677 -0.09939,0 -0.169551,-0.04677 -0.06724,-0.04677 -0.06724,-0.166629 0,-0.122778 0.06724,-0.166628 0.07016,-0.04677 0.169551,-0.04677 z m 0.216324,0.625586 v 1.596122 h -0.435571 v -1.596122 z m 1.293561,-0.03216 q 0.321563,0 0.491115,0.140319 0.172474,0.137395 0.172474,0.423878 v 1.064082 h -0.304023 l -0.08478,-0.216325 h -0.01169 q -0.102315,0.128626 -0.216324,0.187092 -0.114009,0.05847 -0.312793,0.05847 -0.213401,0 -0.353719,-0.122779 -0.140319,-0.125702 -0.140319,-0.382952 0,-0.254327 0.178321,-0.374183 0.178322,-0.122778 0.534964,-0.134472 l 0.277714,-0.0088 v -0.07016 q 0,-0.125702 -0.06724,-0.184168 Q 13.33042,21.43 13.213488,21.43 q -0.116932,0 -0.228017,0.03508 -0.111085,0.03216 -0.222171,0.08185 l -0.143242,-0.295253 q 0.128626,-0.06724 0.283561,-0.105239 0.157858,-0.038 0.327409,-0.038 z m 0.06139,0.89453 q -0.210477,0.0058 -0.29233,0.07601 -0.08185,0.07016 -0.08185,0.184168 0,0.09939 0.05847,0.143242 0.05847,0.04093 0.152012,0.04093 0.140318,0 0.236787,-0.08185 0.09647,-0.08477 0.09647,-0.236787 v -0.131548 z m 1.904531,0.415109 q 0.07308,0 0.140318,-0.01462 0.06724,-0.01462 0.134472,-0.03508 v 0.324486 q -0.07016,0.02923 -0.175398,0.0497 -0.102315,0.02339 -0.225094,0.02339 -0.143242,0 -0.25725,-0.04677 -0.111086,-0.04677 -0.178322,-0.160782 -0.06431,-0.116932 -0.06431,-0.321563 v -0.768828 h -0.207555 v -0.184168 l 0.239711,-0.146165 0.125702,-0.336179 h 0.277713 v 0.339103 h 0.447265 v 0.327409 h -0.447265 v 0.768828 q 0,0.09062 0.05262,0.137395 0.05262,0.04385 0.137395,0.04385 z m 2.243632,-1.277482 v 1.596122 h -0.333256 l -0.05847,-0.204631 h -0.02339 q -0.07601,0.122778 -0.210478,0.178321 -0.131549,0.05554 -0.280637,0.05554 -0.25725,0 -0.412185,-0.137396 -0.154935,-0.140318 -0.154935,-0.447264 v -1.040695 h 0.435572 v 0.932532 q 0,0.169552 0.06139,0.257251 0.06139,0.0877 0.195861,0.0877 0.198784,0 0.271867,-0.134472 0.07308,-0.137395 0.07308,-0.391722 v -0.751288 z m 1.530347,-0.02923 q 0.03216,0 0.07601,0.0029 0.04385,0.0029 0.07016,0.0088 l -0.03216,0.409262 q -0.02046,-0.0058 -0.06139,-0.0088 -0.038,-0.0058 -0.06724,-0.0058 -0.111085,0 -0.213401,0.04093 -0.102315,0.038 -0.166628,0.125702 -0.06139,0.0877 -0.06139,0.23971 v 0.812678 H 18.07932 v -1.596122 h 0.330333 l 0.06431,0.268943 h 0.02046 q 0.07016,-0.122778 0.192938,-0.210477 0.122778,-0.0877 0.28356,-0.0877 z m 1.21463,-0.0029 q 0.321563,0 0.491115,0.140319 0.172475,0.137395 0.172475,0.423878 v 1.064082 h -0.304024 l -0.08478,-0.216325 h -0.01169 q -0.102315,0.128626 -0.216324,0.187092 -0.114008,0.05847 -0.312793,0.05847 -0.213401,0 -0.353719,-0.122779 -0.140319,-0.125702 -0.140319,-0.382952 0,-0.254327 0.178322,-0.374183 0.178321,-0.122778 0.534964,-0.134472 l 0.277713,-0.0088 v -0.07016 q 0,-0.125702 -0.06724,-0.184168 Q 20.28495,21.43 20.168018,21.43 q -0.116932,0 -0.228018,0.03508 -0.111085,0.03216 -0.222171,0.08185 l -0.143241,-0.295253 q 0.128625,-0.06724 0.28356,-0.105239 0.157858,-0.038 0.327409,-0.038 z m 0.06139,0.89453 q -0.210478,0.0058 -0.29233,0.07601 -0.08185,0.07016 -0.08185,0.184168 0,0.09939 0.05847,0.143242 0.05847,0.04093 0.152012,0.04093 0.140318,0 0.236787,-0.08185 0.09647,-0.08477 0.09647,-0.236787 v -0.131548 z"
         id="path4" /></g></g></svg>
